# xmcd
#
# Track frame offsets: 
#        150
#        21714
#        49647
#        83031
#        105251
#        130172
#        150628
#        174101
#        209678
#        274657
#
# Disc length: 4068 seconds
#
# Revision: 0
# Processed by: cddbd v1.5.1PL0 Copyright (c) Steve Scherf et al.
# Submitted via: ExactAudioCopy v0.95a4
#
DISCID=7d0fe20a
DTITLE=John Lee Hooker - Portland, Oregon, 22 March 1983
DYEAR=1983
DGENRE=Blues
TTITLE0=01 - ?
TTITLE1=02 - Four o'clock in the Morning?
TTITLE2=03 - ? 
TTITLE3=04 - Boom, Boom
TTITLE4=05 - One Bourbon, One Scotch
TTITLE5=06 - ?
TTITLE6=07 - Whisky and Women
TTITLE7=08 - Stormy Monday
TTITLE8=09 - ?
TTITLE9=10 - ?
EXTD=
EXTT0=
EXTT1=
EXTT2=
EXTT3=
EXTT4=
EXTT5=
EXTT6=
EXTT7=
EXTT8=
EXTT9=
PLAYORDER=
